<svg width="1132" viewBox="0 0 1132 804" xmlns="http://www.w3.org/2000/svg" height="804" xmlns:ev="http://www.w3.org/2001/xml-events" xmlns:xlink="http://www.w3.org/1999/xlink"><style type="text/css"><![CDATA[
.st2 {fill:#1f6391;font-family:Arial;font-size:10pt}
.st1 {fill:#ffffff;font-family:Arial;font-size:10pt}
]]></style><defs/><g id="page1" transform="translate(5,5)"><rect width="1123" stroke="#808080" height="794" fill="#ffffff" y="0" x="0"/><g transform="translate(252,108)"><path stroke="#3498db" fill="#3498db" d="M94,56L94,0L0,0L0,56L94,56z" id="shape1"/><text class="st1"><tspan y="31.5" x="15">Producer A</tspan></text></g><g transform="translate(90,265)"><path stroke="#3498db" fill="#cdddf1" d="M940,228L940,0L0,0L0,228L940,228z" id="shape2"/></g><g id="shape3" transform="translate(299,164)"><path stroke="#236ea1" fill="none" d="M0,0L0,35.1"/><path stroke="#236ea1" stroke-linecap="round" stroke-width="1" fill="#236ea1" d="M0,39.5L3,34.3C2.1,34.8,1.1,35.1,0,35.1C-1.1,35.1,-2.1,34.8,-3,34.3L0,39.5"/></g><g transform="translate(392,108)"><path stroke="#3498db" fill="#3498db" d="M94,56L94,0L0,0L0,56L94,56z" id="shape4"/><text class="st1"><tspan y="31.5" x="15">Producer B</tspan></text></g><g id="shape5" transform="translate(439,164)"><path stroke="#236ea1" fill="none" d="M0,0L0,35.1"/><path stroke="#236ea1" stroke-linecap="round" stroke-width="1" fill="#236ea1" d="M0,39.5L3,34.3C2.1,34.8,1.1,35.1,0,35.1C-1.1,35.1,-2.1,34.8,-3,34.3L0,39.5"/></g><g transform="translate(746,108)"><path stroke="#3498db" fill="#3498db" d="M94,56L94,0L0,0L0,56L94,56z" id="shape6"/><text class="st1"><tspan y="31.5" x="14">Producer C</tspan></text></g><g id="shape7" transform="translate(793,164)"><path stroke="#236ea1" fill="none" d="M0,0L0,35.1"/><path stroke="#236ea1" stroke-linecap="round" stroke-width="1" fill="#236ea1" d="M0,39.5L3,34.3C2.1,34.8,1.1,35.1,0,35.1C-1.1,35.1,-2.1,34.8,-3,34.3L0,39.5"/></g><g transform="translate(280,203.5)"><path stroke="#ffaf00" fill="#ffaf00" d="M38,19C38,29.5,29.5,38,19,38C8.5,38,0,29.5,0,19C0,8.5,8.5,0,19,0C29.5,0,38,8.5,38,19z" id="shape8"/><path stroke="#ffffff" fill="none" d="M32.7,16.3C32.7,25.4,25.4,32.7,16.3,32.7C7.3,32.7,-0,25.4,-0,16.3C-0,7.3,7.3,-0,16.3,-0C25.4,-0,32.7,7.3,32.7,16.3z" id="shape9" transform="translate(2.66,2.66)"/><g transform="translate(7.6,11.4)"><path stroke="#000000" fill="#ffffff" d="M0,15.2L22.8,15.2L22.8,0L0,0L0,15.2z" id="shape10"/><path stroke="#000000" fill="none" d="M0,0L11.4,6.1L22.8,0" id="shape11"/></g></g><g transform="translate(420,203.5)"><path stroke="#ffaf00" fill="#ffaf00" d="M38,19C38,29.5,29.5,38,19,38C8.5,38,0,29.5,0,19C0,8.5,8.5,0,19,0C29.5,0,38,8.5,38,19z" id="shape12"/><path stroke="#ffffff" fill="none" d="M32.7,16.3C32.7,25.4,25.4,32.7,16.3,32.7C7.3,32.7,-0,25.4,-0,16.3C-0,7.3,7.3,-0,16.3,-0C25.4,-0,32.7,7.3,32.7,16.3z" id="shape13" transform="translate(2.66,2.66)"/><g transform="translate(7.6,11.4)"><path stroke="#000000" fill="#ffffff" d="M0,15.2L22.8,15.2L22.8,0L0,0L0,15.2z" id="shape14"/><path stroke="#000000" fill="none" d="M0,0L11.4,6.1L22.8,0" id="shape15"/></g></g><g transform="translate(774,203.5)"><path stroke="#ffaf00" fill="#ffaf00" d="M38,19C38,29.5,29.5,38,19,38C8.5,38,0,29.5,0,19C0,8.5,8.5,0,19,0C29.5,0,38,8.5,38,19z" id="shape16"/><path stroke="#ffffff" fill="none" d="M32.7,16.3C32.7,25.4,25.4,32.7,16.3,32.7C7.3,32.7,-0,25.4,-0,16.3C-0,7.3,7.3,-0,16.3,-0C25.4,-0,32.7,7.3,32.7,16.3z" id="shape17" transform="translate(2.66,2.66)"/><g transform="translate(7.6,11.4)"><path stroke="#000000" fill="#ffffff" d="M0,15.2L22.8,15.2L22.8,0L0,0L0,15.2z" id="shape18"/><path stroke="#000000" fill="none" d="M0,0L11.4,6.1L22.8,0" id="shape19"/></g></g><g transform="translate(245.5,425)"><path stroke="#3498db" fill="#3498db" d="M20,40L87,40C98,40,107,31,107,20C107,9,98,0,87,0L20,0C9,0,0,9,0,20C0,31,9,40,20,40z" id="shape20"/><text class="st1"><tspan y="23.5" x="12">Subscription A</tspan></text></g><g transform="translate(385.5,425)"><path stroke="#3498db" fill="#3498db" d="M20,40L87,40C98,40,107,31,107,20C107,9,98,0,87,0L20,0C9,0,0,9,0,20C0,31,9,40,20,40z" id="shape21"/><text class="st1"><tspan y="23.5" x="12">Subscription B</tspan></text></g><g transform="translate(252,305.25)"><path stroke="#ee7c31" fill="#ee7c31" d="M94,56L94,0L0,0L0,56L94,56z" id="shape22"/><text class="st1"><tspan y="31.5" x="20">Stream A</tspan></text></g><g transform="translate(392,305.25)"><path stroke="#ee7c31" fill="#ee7c31" d="M94,56L94,0L0,0L0,56L94,56z" id="shape23"/><text class="st1"><tspan y="31.5" x="20">Stream B</tspan></text></g><g transform="translate(280,539)"><path stroke="#ffaf00" fill="#ffaf00" d="M38,19C38,29.5,29.5,38,19,38C8.5,38,0,29.5,0,19C0,8.5,8.5,0,19,0C29.5,0,38,8.5,38,19z" id="shape24"/><path stroke="#ffffff" fill="none" d="M32.7,16.3C32.7,25.4,25.4,32.7,16.3,32.7C7.3,32.7,-0,25.4,-0,16.3C-0,7.3,7.3,-0,16.3,-0C25.4,-0,32.7,7.3,32.7,16.3z" id="shape25" transform="translate(2.66,2.66)"/><g transform="translate(7.6,11.4)"><path stroke="#000000" fill="#ffffff" d="M0,15.2L22.8,15.2L22.8,0L0,0L0,15.2z" id="shape26"/><path stroke="#000000" fill="none" d="M0,0L11.4,6.1L22.8,0" id="shape27"/></g></g><g transform="translate(420,539)"><path stroke="#ffaf00" fill="#ffaf00" d="M38,19C38,29.5,29.5,38,19,38C8.5,38,0,29.5,0,19C0,8.5,8.5,0,19,0C29.5,0,38,8.5,38,19z" id="shape28"/><path stroke="#ffffff" fill="none" d="M32.7,16.3C32.7,25.4,25.4,32.7,16.3,32.7C7.3,32.7,-0,25.4,-0,16.3C-0,7.3,7.3,-0,16.3,-0C25.4,-0,32.7,7.3,32.7,16.3z" id="shape29" transform="translate(2.66,2.66)"/><g transform="translate(7.6,11.4)"><path stroke="#000000" fill="#ffffff" d="M0,15.2L22.8,15.2L22.8,0L0,0L0,15.2z" id="shape30"/><path stroke="#000000" fill="none" d="M0,0L11.4,6.1L22.8,0" id="shape31"/></g></g><g transform="translate(294,657)"><path stroke="#83b3e3" fill="#e8eff8" d="M161,56L161,0L0,0L0,56L161,56z" id="shape32"/><text class="st2"><tspan y="31.5" x="51">Consumer</tspan></text></g><g id="shape33" transform="translate(299,241.5)"><path stroke="#236ea1" fill="none" d="M0,0L0,59.4"/><path stroke="#236ea1" stroke-linecap="round" stroke-width="1" fill="#236ea1" d="M0,63.8L3,58.6C2.1,59.1,1.1,59.4,0,59.4C-1.1,59.4,-2.1,59.1,-3,58.6L0,63.8"/></g><g id="shape34" transform="translate(299,361.25)"><path stroke="#236ea1" fill="none" d="M0,0L0,59.4"/><path stroke="#236ea1" stroke-linecap="round" stroke-width="1" fill="#236ea1" d="M0,63.8L3,58.6C2.1,59.1,1.1,59.4,0,59.4C-1.1,59.4,-2.1,59.1,-3,58.6L0,63.8"/></g><g id="shape35" transform="translate(439,241.5)"><path stroke="#236ea1" fill="none" d="M0,0L0,59.4"/><path stroke="#236ea1" stroke-linecap="round" stroke-width="1" fill="#236ea1" d="M0,63.8L3,58.6C2.1,59.1,1.1,59.4,0,59.4C-1.1,59.4,-2.1,59.1,-3,58.6L0,63.8"/></g><g id="shape36" transform="translate(439,361.25)"><path stroke="#236ea1" fill="none" d="M0,0L0,59.4"/><path stroke="#236ea1" stroke-linecap="round" stroke-width="1" fill="#236ea1" d="M0,63.8L3,58.6C2.1,59.1,1.1,59.4,0,59.4C-1.1,59.4,-2.1,59.1,-3,58.6L0,63.8"/></g><g id="shape37" transform="translate(439,465)"><path stroke="#236ea1" fill="none" d="M0,0L0,69.6"/><path stroke="#236ea1" stroke-linecap="round" stroke-width="1" fill="#236ea1" d="M0,74L3,68.8C2.1,69.3,1.1,69.6,0,69.6C-1.1,69.6,-2.1,69.3,-3,68.8L0,74"/></g><g id="shape38" transform="translate(299,465)"><path stroke="#236ea1" fill="none" d="M0,0L0,69.6"/><path stroke="#236ea1" stroke-linecap="round" stroke-width="1" fill="#236ea1" d="M0,74L3,68.8C2.1,69.3,1.1,69.6,0,69.6C-1.1,69.6,-2.1,69.3,-3,68.8L0,74"/></g><g id="shape39" transform="translate(299,577)"><path stroke="#236ea1" fill="none" d="M0,0L0,28L75.5,28L75.5,75.6"/><path stroke="#236ea1" stroke-linecap="round" stroke-width="1" fill="#236ea1" d="M75.5,80L78.5,74.8C77.6,75.3,76.6,75.6,75.5,75.6C74.4,75.6,73.4,75.3,72.5,74.8L75.5,80"/></g><g id="shape40" transform="translate(439,577)"><path stroke="#236ea1" fill="none" d="M0,0L0,28L-64.5,28L-64.5,75.6"/><path stroke="#236ea1" stroke-linecap="round" stroke-width="1" fill="#236ea1" d="M-64.5,80L-61.5,74.8C-62.4,75.3,-63.4,75.6,-64.5,75.6C-65.6,75.6,-66.6,75.3,-67.5,74.8L-64.5,80"/></g><g transform="translate(746,305.25)"><path stroke="#ee7c31" fill="#ee7c31" d="M94,56L94,0L0,0L0,56L94,56z" id="shape41"/><text class="st1"><tspan y="31.5" x="20">Stream C</tspan></text></g><g transform="translate(633,425)"><path stroke="#3498db" fill="#3498db" d="M20,40L87,40C98,40,107,31,107,20C107,9,98,0,87,0L20,0C9,0,0,9,0,20C0,31,9,40,20,40z" id="shape42"/><text class="st1"><tspan y="23.5" x="11">Subscription C</tspan></text></g><g transform="translate(843,425)"><path stroke="#3498db" fill="#3498db" d="M20,40L87,40C98,40,107,31,107,20C107,9,98,0,87,0L20,0C9,0,0,9,0,20C0,31,9,40,20,40z" id="shape43"/><text class="st1"><tspan y="23.5" x="11">Subscription D</tspan></text></g><g transform="translate(606,657)"><path stroke="#83b3e3" fill="#e8eff8" d="M161,56L161,0L0,0L0,56L161,56z" id="shape44"/><text class="st2"><tspan y="31.5" x="51">Consumer</tspan></text></g><g transform="translate(816,657)"><path stroke="#83b3e3" fill="#e8eff8" d="M161,56L161,0L0,0L0,56L161,56z" id="shape45"/><text class="st2"><tspan y="31.5" x="51">Consumer</tspan></text></g><g transform="translate(667.5,539)"><path stroke="#ffaf00" fill="#ffaf00" d="M38,19C38,29.5,29.5,38,19,38C8.5,38,0,29.5,0,19C0,8.5,8.5,0,19,0C29.5,0,38,8.5,38,19z" id="shape46"/><path stroke="#ffffff" fill="none" d="M32.7,16.3C32.7,25.4,25.4,32.7,16.3,32.7C7.3,32.7,-0,25.4,-0,16.3C-0,7.3,7.3,-0,16.3,-0C25.4,-0,32.7,7.3,32.7,16.3z" id="shape47" transform="translate(2.66,2.66)"/><g transform="translate(7.6,11.4)"><path stroke="#000000" fill="#ffffff" d="M0,15.2L22.8,15.2L22.8,0L0,0L0,15.2z" id="shape48"/><path stroke="#000000" fill="none" d="M0,0L11.4,6.1L22.8,0" id="shape49"/></g></g><g transform="translate(877.5,539)"><path stroke="#ffaf00" fill="#ffaf00" d="M38,19C38,29.5,29.5,38,19,38C8.5,38,0,29.5,0,19C0,8.5,8.5,0,19,0C29.5,0,38,8.5,38,19z" id="shape50"/><path stroke="#ffffff" fill="none" d="M32.7,16.3C32.7,25.4,25.4,32.7,16.3,32.7C7.3,32.7,-0,25.4,-0,16.3C-0,7.3,7.3,-0,16.3,-0C25.4,-0,32.7,7.3,32.7,16.3z" id="shape51" transform="translate(2.66,2.66)"/><g transform="translate(7.6,11.4)"><path stroke="#000000" fill="#ffffff" d="M0,15.2L22.8,15.2L22.8,0L0,0L0,15.2z" id="shape52"/><path stroke="#000000" fill="none" d="M0,0L11.4,6.1L22.8,0" id="shape53"/></g></g><g id="shape54" transform="translate(793,241.5)"><path stroke="#236ea1" fill="none" d="M0,0L0,59.4"/><path stroke="#236ea1" stroke-linecap="round" stroke-width="1" fill="#236ea1" d="M0,63.8L3,58.6C2.1,59.1,1.1,59.4,0,59.4C-1.1,59.4,-2.1,59.1,-3,58.6L0,63.8"/></g><g id="shape55" transform="translate(746,333.25)"><path stroke="#236ea1" fill="none" d="M0,0L-59.5,0L-59.5,87.4"/><path stroke="#236ea1" stroke-linecap="round" stroke-width="1" fill="#236ea1" d="M-59.5,91.8L-56.5,86.6C-57.4,87.1,-58.4,87.4,-59.5,87.4C-60.6,87.4,-61.6,87.1,-62.5,86.6L-59.5,91.8"/></g><g id="shape56" transform="translate(840,333.25)"><path stroke="#236ea1" fill="none" d="M0,0L56.5,0L56.5,87.4"/><path stroke="#236ea1" stroke-linecap="round" stroke-width="1" fill="#236ea1" d="M56.5,91.8L59.5,86.6C58.6,87.1,57.6,87.4,56.5,87.4C55.4,87.4,54.4,87.1,53.5,86.6L56.5,91.8"/></g><g id="shape57" transform="translate(896.5,465)"><path stroke="#236ea1" fill="none" d="M0,0L0,69.6"/><path stroke="#236ea1" stroke-linecap="round" stroke-width="1" fill="#236ea1" d="M0,74L3,68.8C2.1,69.3,1.1,69.6,0,69.6C-1.1,69.6,-2.1,69.3,-3,68.8L0,74"/></g><g id="shape58" transform="translate(686.5,465)"><path stroke="#236ea1" fill="none" d="M0,0L0,69.6"/><path stroke="#236ea1" stroke-linecap="round" stroke-width="1" fill="#236ea1" d="M0,74L3,68.8C2.1,69.3,1.1,69.6,0,69.6C-1.1,69.6,-2.1,69.3,-3,68.8L0,74"/></g><g id="shape59" transform="translate(686.5,577)"><path stroke="#236ea1" fill="none" d="M0,0L0,75.6"/><path stroke="#236ea1" stroke-linecap="round" stroke-width="1" fill="#236ea1" d="M0,80L3,74.8C2.1,75.3,1.1,75.6,0,75.6C-1.1,75.6,-2.1,75.3,-3,74.8L0,80"/></g><g id="shape60" transform="translate(896.5,577)"><path stroke="#236ea1" fill="none" d="M0,0L0,75.6"/><path stroke="#236ea1" stroke-linecap="round" stroke-width="1" fill="#236ea1" d="M0,80L3,74.8C2.1,75.3,1.1,75.6,0,75.6C-1.1,75.6,-2.1,75.3,-3,74.8L0,80"/></g></g></svg>